<?xml version="1.0" encoding="UTF-8"?>
<svg version="1.1" xmlns="http://www.w3.org/2000/svg" width="512" height="512">
<path d="M0 0 C0.9355925 -0.00974854 1.871185 -0.01949707 2.83512878 -0.02954102 C23.24416486 -0.1984297 42.96079539 -0.03089418 63.0078125 4.23828125 C63.93158691 4.42551758 64.85536133 4.61275391 65.80712891 4.80566406 C111.28586786 14.15160545 152.47243686 35.90109891 186.6640625 67.1171875 C188.80705562 69.05659628 190.99125888 70.93157424 193.1953125 72.80078125 C196.40716995 75.61035835 199.22808486 78.58191996 201.98046875 81.83984375 C203.52869966 83.67146952 205.09682178 85.47121074 206.69140625 87.26171875 C222.88012371 105.56853604 235.67592217 126.12833412 246.0078125 148.23828125 C246.54704346 149.38127686 246.54704346 149.38127686 247.09716797 150.54736328 C260.46656896 179.21762319 268.97097327 211.47691951 269.24609375 243.23046875 C269.25584229 244.16606125 269.26559082 245.10165375 269.27563477 246.06559753 C269.44452345 266.47463361 269.27698793 286.19126414 265.0078125 306.23828125 C264.82057617 307.16205566 264.63333984 308.08583008 264.44042969 309.03759766 C255.0944883 354.51633661 233.34499484 395.70290561 202.12890625 429.89453125 C200.18949747 432.03752437 198.31451951 434.22172763 196.4453125 436.42578125 C193.6357354 439.6376387 190.66417379 442.45855361 187.40625 445.2109375 C185.57462423 446.75916841 183.77488301 448.32729053 181.984375 449.921875 C163.67755771 466.11059246 143.11775963 478.90639092 121.0078125 489.23828125 C120.24581543 489.59776855 119.48381836 489.95725586 118.69873047 490.32763672 C90.02847056 503.69703771 57.76917424 512.20144202 26.015625 512.4765625 C25.0800325 512.48631104 24.14444 512.49605957 23.18049622 512.50610352 C2.77146014 512.6749922 -16.94517039 512.50745668 -36.9921875 508.23828125 C-37.91596191 508.05104492 -38.83973633 507.86380859 -39.79150391 507.67089844 C-85.27024286 498.32495705 -126.45681186 476.57546359 -160.6484375 445.359375 C-162.79143062 443.41996622 -164.97563388 441.54498826 -167.1796875 439.67578125 C-170.39154495 436.86620415 -173.21245986 433.89464254 -175.96484375 430.63671875 C-177.51307466 428.80509298 -179.08119678 427.00535176 -180.67578125 425.21484375 C-196.86449871 406.90802646 -209.66029717 386.34822838 -219.9921875 364.23828125 C-220.3516748 363.47628418 -220.71116211 362.71428711 -221.08154297 361.92919922 C-234.45094396 333.25893931 -242.95534827 300.99964299 -243.23046875 269.24609375 C-243.24021729 268.31050125 -243.24996582 267.37490875 -243.26000977 266.41096497 C-243.42889845 246.00192889 -243.26136293 226.28529836 -238.9921875 206.23828125 C-238.80495117 205.31450684 -238.61771484 204.39073242 -238.42480469 203.43896484 C-229.0788633 157.96022589 -207.32936984 116.77365689 -176.11328125 82.58203125 C-174.17387247 80.43903813 -172.29889451 78.25483487 -170.4296875 76.05078125 C-167.6201104 72.8389238 -164.64854879 70.01800889 -161.390625 67.265625 C-159.55899923 65.71739409 -157.75925801 64.14927197 -155.96875 62.5546875 C-137.66193271 46.36597004 -117.10213463 33.57017158 -94.9921875 23.23828125 C-93.84919189 22.69905029 -93.84919189 22.69905029 -92.68310547 22.14892578 C-64.01284556 8.77952479 -31.75354924 0.27512048 0 0 Z " fill="#C3CE19" transform="translate(242.9921875,-0.23828125)"/>
<path d="M0 0 C10.76201075 2.53223782 19.88257098 10.65059733 26.6875 19.09375 C31.0812133 24.40872576 35.15343643 27.46332211 41.31640625 30.5234375 C44.75495384 32.41538945 47.42533141 34.77936748 50.24609375 37.484375 C51.91770999 39.06964362 51.91770999 39.06964362 53.93115234 39.89355469 C56.19470493 41.10413061 57.25291659 42.22978807 58.85546875 44.21875 C64.02722915 50.32493308 69.72631429 55.91233968 75.38110352 61.56640625 C77.33052781 63.51804832 79.27177624 65.4775967 81.21289062 67.4375 C82.45003249 68.67757071 83.68764535 69.91717177 84.92578125 71.15625 C85.79605705 72.03730408 85.79605705 72.03730408 86.68391418 72.93615723 C89.34164121 75.9937213 89.34164121 75.9937213 93 77 C93.21914063 76.33613281 93.43828125 75.67226562 93.6640625 74.98828125 C95.8047104 69.02753406 97.49086985 65.30547809 103 62 C106.0625 61.375 106.0625 61.375 109 62 C110.71253784 63.61949674 112.37146837 65.29605156 114 67 C116.01547457 68.96586186 118.06740786 70.8908834 120.125 72.8125 C120.64964844 73.31458984 121.17429687 73.81667969 121.71484375 74.33398438 C124.82099262 77.38024688 124.82099262 77.38024688 129 78 C131.33333333 76.33333333 131.33333333 76.33333333 133 74 C132.84000224 71.05234892 132.02445624 70.02534641 129.9609375 67.88671875 C128.68089844 66.79810547 128.68089844 66.79810547 127.375 65.6875 C114.21601395 54.24654513 114.21601395 54.24654513 113.6875 48.75 C114.3234364 41.1187632 120.08594285 36.49776327 125.625 31.75 C128.9885503 29.27159452 131.79133563 28.7863606 135.875 28.625 C136.71804688 28.57601562 137.56109375 28.52703125 138.4296875 28.4765625 C142.06008183 29.21588293 143.6554373 31.31983389 146 34 C148.8653009 37.13360389 151.77156818 40.22604585 154.6875 43.3125 C155.43966797 44.14845703 156.19183594 44.98441406 156.96679688 45.84570312 C161.19105932 50.3715165 161.19105932 50.3715165 166.81103516 52.54052734 C169.27269774 52.54269621 171.57326322 52.3984575 174 52 C170.2678395 47.54372341 166.39038878 43.3347687 162.1953125 39.30859375 C161.36515625 38.50873047 160.535 37.70886719 159.6796875 36.88476562 C157.96236208 35.2396519 156.23559438 33.60434399 154.5 31.97851562 C147.55108293 25.23109536 147.55108293 25.23109536 146.875 21.09375 C147.11941475 15.04448493 149.87357895 11.89601186 154.125 7.875 C161.57399547 1.62359223 168.08148735 -0.90604578 177.921875 -0.57421875 C183.07461983 0.38701664 185.62032478 3.18887688 189 7 C190.39065448 8.38023759 191.78650783 9.75525673 193.1875 11.125 C194.45938628 12.41562986 195.73016413 13.70735271 197 15 C199.79288103 17.80238062 202.59759432 20.59240449 205.41015625 23.375 C206.6276435 24.58329371 207.84509074 25.79162772 209.0625 27 C209.67416016 27.60328125 210.28582031 28.2065625 210.91601562 28.828125 C214.18218293 32.07663735 217.12790092 35.39163534 220 39 C220.66 39.33 221.32 39.66 222 40 C222 40.66 222 41.32 222 42 C223.60875 41.8453125 223.60875 41.8453125 225.25 41.6875 C233.92945871 41.6875 242.50110602 46.53502097 249 52 C249 52.66 249 53.32 249 54 C249.66 54 250.32 54 251 54 C251.41507812 54.70125 251.83015625 55.4025 252.2578125 56.125 C254.3784084 59.6244587 256.95071721 62.16912182 259.875 65 C260.39191406 65.50789063 260.90882813 66.01578125 261.44140625 66.5390625 C262.4676061 67.54716815 263.49597974 68.55306619 264.52661133 69.55664062 C265.90759601 70.90947931 267.26901268 72.28221192 268.62890625 73.65625 C270.70729761 75.71067309 272.8296033 77.61779682 275.0625 79.5 C278.0941354 82.12287557 280.56244346 84.80596039 283 88 C286.73303602 91.94635237 290.79025831 95.49123788 294.859375 99.08203125 C297.33546802 101.30057445 299.68182712 103.61743343 302 106 C303.175625 107.1446875 303.175625 107.1446875 304.375 108.3125 C306.46020887 110.4473567 308.38338831 112.60468489 310.3125 114.875 C313.36359204 118.41240147 316.67147745 121.40337383 320.23046875 124.41796875 C322.44728031 126.39988637 324.14426652 128.68033314 326 131 C328.0945882 132.86320927 330.22609643 134.66782753 332.390625 136.44921875 C332.92171875 136.96097656 333.4528125 137.47273437 334 138 C334 138.66 334 139.32 334 140 C334.66 140 335.32 140 336 140 C335.89016448 156.88451895 334.18033055 172.63493965 330 189 C329.68119873 190.26457031 329.68119873 190.26457031 329.35595703 191.5546875 C320.24672808 226.72740808 303.00660746 259.04270275 280 287 C279.51772949 287.58668457 279.03545898 288.17336914 278.53857422 288.77783203 C268.35407404 301.08592314 257.56201865 312.09641152 245 322 C244.24847656 322.63035156 243.49695313 323.26070313 242.72265625 323.91015625 C219.75724113 343.02837362 192.43708074 356.97698629 164.17236328 366.28173828 C162.27460194 366.90920669 160.38460942 367.5600741 158.49609375 368.21484375 C147.39711249 372.04956348 136.24133584 374.46941811 124.625 376.125 C123.42963623 376.29676758 122.23427246 376.46853516 121.00268555 376.64550781 C112.99360254 377.77162282 105.0933583 378.80197102 97 379 C96.16533203 379.02046387 95.33066406 379.04092773 94.47070312 379.06201172 C83.07948667 379.29982007 71.73883964 379.10290503 60.375 378.25 C58.94522827 378.15755005 58.94522827 378.15755005 57.48657227 378.06323242 C56.59123779 377.98564697 55.69590332 377.90806152 54.7734375 377.828125 C53.99403809 377.7652832 53.21463867 377.70244141 52.41162109 377.63769531 C45.18282421 375.72621349 40.02632016 369.29727925 34.95288086 364.17993164 C34.06270767 363.29005051 33.17253448 362.40016937 32.25538635 361.48332214 C29.82536588 359.05387332 27.40154481 356.61832471 24.9788177 354.18160558 C22.43565657 351.62588737 19.88677824 349.07588371 17.33851624 346.5252533 C12.51345243 341.69398233 7.69350487 336.8576406 2.87539631 332.01943439 C-2.59164414 326.53007876 -8.06432451 321.04636098 -13.53751194 315.56313527 C-22.8981127 306.18517598 -32.25448221 296.80301479 -41.60610962 287.41610718 C-43.73712125 285.27712032 -45.86842343 283.13842387 -48 281 C-48.52457228 280.47355833 -49.04914455 279.94711666 -49.58961296 279.40472221 C-51.38061624 277.60983312 -53.17903288 275.830317 -55.01953125 274.0859375 C-55.61121094 273.52132813 -56.20289062 272.95671875 -56.8125 272.375 C-57.71935547 271.52035156 -57.71935547 271.52035156 -58.64453125 270.6484375 C-60 269 -60 269 -60 266 C-60.598125 265.731875 -61.19625 265.46375 -61.8125 265.1875 C-65.31088537 263.28837651 -66.73345454 261.79963639 -68 258 C-68.5074473 254.19414525 -68.86096143 250.55165811 -66.953125 247.11328125 C-65.1804351 244.9599844 -63.50869211 243.25434606 -61 242 C-59.46680641 241.9076163 -57.92961973 241.87807231 -56.39364624 241.87974548 C-54.93808067 241.87768349 -54.93808067 241.87768349 -53.45310974 241.87557983 C-51.85089317 241.88097275 -51.85089317 241.88097275 -50.21630859 241.88647461 C-48.53337959 241.88625557 -48.53337959 241.88625557 -46.81645203 241.8860321 C-43.09376111 241.88673091 -39.37111972 241.89452185 -35.6484375 241.90234375 C-33.07296781 241.90420804 -30.49749776 241.90563189 -27.92202759 241.90663147 C-21.82699678 241.9100645 -15.73198653 241.91795261 -9.63696349 241.92798096 C-2.01839576 241.94024456 5.60017487 241.94572645 13.21875 241.95117188 C26.81251394 241.96091816 40.40623884 241.98094926 54 242 C54 212.96 54 183.92 54 154 C84.36 154 114.72 154 146 154 C146 141.79 146 129.58 146 117 C143.03 116.01 140.06 115.02 137 114 C135.85917969 113.58878906 134.71835937 113.17757812 133.54296875 112.75390625 C117.43172404 107.03338281 101.7985083 104.44787681 84.66870117 104.59082031 C83.61400635 104.58276367 82.55931152 104.57470703 81.47265625 104.56640625 C80.53687744 104.57615479 79.60109863 104.58590332 78.63696289 104.59594727 C75.06344514 103.78834086 73.44316232 101.5630321 71 99 C69.88976816 97.88424585 68.77656568 96.77144275 67.66101074 95.66101074 C45.55367025 73.55367025 23.44632975 51.44632975 1.33898926 29.33898926 C0.7666304 28.76666565 0.19427155 28.19434204 -0.39543152 27.60467529 C-1.86775651 26.1322523 -3.33971892 24.65946677 -4.81164551 23.18664551 C-6.27120773 21.72822313 -7.73505064 20.27407233 -9.203125 18.82421875 C-15.41718049 12.33740891 -15.41718049 12.33740891 -16.25 7.6875 C-16 4 -16 4 -14.3359375 1.80078125 C-10.04363564 -1.50816717 -5.16486919 -0.61364782 0 0 Z " fill="#ACB326" transform="translate(171,128)"/>
<path d="M0 0 C20.79 0 41.58 0 63 0 C63 29.04 63 58.08 63 88 C71.08757812 87.95359375 79.17515625 87.9071875 87.5078125 87.859375 C92.63022116 87.83893783 97.75257959 87.81968208 102.875 87.8046875 C111.00629203 87.78077249 119.1374053 87.75307358 127.26855469 87.69824219 C133.82375262 87.65405916 140.37882994 87.63086457 146.93416977 87.62049103 C149.43563757 87.61309796 151.93709475 87.59866118 154.43848038 87.57707977 C157.94115322 87.54806027 161.44302714 87.54404355 164.94580078 87.54589844 C165.98086258 87.53151733 167.01592438 87.51713623 168.08235168 87.50231934 C174.05024728 87.53653601 177.452964 88.02688396 182 92 C184.14124115 94.7122388 184.91822065 96.46259285 185.4375 99.875 C184.88302615 103.8355275 183.70663294 107.01112459 181 110 C175.34579158 113.76979702 169.90256826 113.42873983 163.35401917 113.40113831 C162.17368494 113.40793498 160.99335072 113.41473164 159.7772488 113.42173427 C156.50916896 113.43742299 153.24140104 113.439692 149.97329557 113.43615115 C146.44559086 113.4355382 142.91795965 113.45210404 139.39028931 113.46632385 C132.48253553 113.49122363 125.57485856 113.49948742 118.66706366 113.50116099 C113.05226674 113.50258717 107.43749513 113.50875491 101.82270622 113.51826286 C85.90105619 113.54467528 69.97946679 113.55852184 54.0577947 113.55627144 C52.77077934 113.55609164 52.77077934 113.55609164 51.45776367 113.5559082 C50.59870518 113.55578556 49.7396467 113.55566292 48.85455614 113.55553656 C34.92743078 113.55431679 21.00054861 113.58303673 7.07349361 113.6253233 C-7.22931446 113.66840798 -21.53200389 113.68913431 -35.8348785 113.68654197 C-43.86391 113.68554594 -51.89268643 113.69379218 -59.92165947 113.72607613 C-66.75643265 113.7533825 -73.59083511 113.75992451 -80.4256392 113.73954786 C-83.91229148 113.72974772 -87.39823239 113.72959499 -90.88481712 113.7556076 C-94.66619552 113.77869123 -98.44569881 113.76488842 -102.22703552 113.74171448 C-103.8770377 113.76486051 -103.8770377 113.76486051 -105.56037325 113.78847414 C-111.73718921 113.70467581 -115.28773772 112.93732572 -119.78498703 108.57939285 C-122.39872933 105.18179463 -122.38619799 101.4035918 -122.359375 97.29296875 C-121.74961638 93.40244364 -119.81165184 91.67776365 -117 89 C-114.58813315 87.79406658 -113.08766923 87.87681082 -110.39364624 87.87974548 C-108.93808067 87.87768349 -108.93808067 87.87768349 -107.45310974 87.87557983 C-105.85089317 87.88097275 -105.85089317 87.88097275 -104.21630859 87.88647461 C-102.53337959 87.88625557 -102.53337959 87.88625557 -100.81645203 87.8860321 C-97.09376111 87.88673091 -93.37111972 87.89452185 -89.6484375 87.90234375 C-87.07296781 87.90420804 -84.49749776 87.90563189 -81.92202759 87.90663147 C-75.82699678 87.9100645 -69.73198653 87.91795261 -63.63696349 87.92798096 C-56.01839576 87.94024456 -48.39982513 87.94572645 -40.78125 87.95117188 C-27.18748606 87.96091816 -13.59376116 87.98094926 0 88 C0 58.96 0 29.92 0 0 Z " fill="#25434E" transform="translate(225,282)"/>
<path d="M0 0 C0.84046875 0.0103125 1.6809375 0.020625 2.546875 0.03125 C12.19010217 0.81162677 17.6274473 7.38384819 24 14 C24.495 14.495 24.495 14.495 25 15 C25.33 14.01 25.66 13.02 26 12 C26.66 12 27.32 12 28 12 C28 11.34 28 10.68 28 10 C33.50035441 6.65664732 39.8136306 7.29965629 46 8 C54.55215861 10.49174004 59.74100599 15.56811185 65.54443359 21.93945312 C68.94699497 25.47604456 71.3597806 26.84300351 76.25 27.25 C78.88942729 27.24443499 78.88942729 27.24443499 81 27 C81 27.66 81 28.32 81 29 C81.845625 29.185625 82.69125 29.37125 83.5625 29.5625 C88.02133471 31.4271036 90.99746641 34.23350816 94 38 C94 38.66 94 39.32 94 40 C94.84933105 40.36037354 94.84933105 40.36037354 95.71582031 40.72802734 C98.47040587 42.26195111 100.33249671 44.10726018 102.546875 46.3515625 C103.39121094 47.20234375 104.23554688 48.053125 105.10546875 48.9296875 C105.97816406 49.81914062 106.85085937 50.70859375 107.75 51.625 C108.63816406 52.5221875 109.52632812 53.419375 110.44140625 54.34375 C112.63216969 56.55807004 114.81812763 58.77692435 117 61 C114.57755374 63.42244626 113.14654716 63.60002636 109.828125 64.33203125 C108.7769751 64.57099121 107.7258252 64.80995117 106.64282227 65.05615234 C105.52319092 65.30574707 104.40355957 65.5553418 103.25 65.8125 C94.7164281 67.77425465 86.54366424 69.93142917 78.37890625 73.1171875 C76 74 76 74 74 74 C74 86.21 74 98.42 74 111 C83.9 111 93.8 111 104 111 C104 140.04 104 169.08 104 199 C66.38 199 28.76 199 -10 199 C-10 198.67 -10 198.34 -10 198 C27.29 198 64.58 198 103 198 C106.91153627 147.76975882 106.91153627 147.76975882 92.453125 128.1796875 C88.42827654 124.51230913 84.51945158 121.19752269 80.25 117.875 C78.14933556 116.07896215 76.09035347 114.23793553 74.03125 112.39453125 C69.50679037 108.38001668 64.85789636 104.54954384 60.13708496 100.76873779 C57.57855498 98.65119508 55.30128226 96.39080708 53 94 C52.071875 93.278125 51.14375 92.55625 50.1875 91.8125 C49.465625 91.214375 48.74375 90.61625 48 90 C48 89.34 48 88.68 48 88 C47.34 88 46.68 88 46 88 C44.28694935 86.3810457 42.62995244 84.70258938 41 83 C40.03059803 82.02917107 39.05812881 81.06139715 38.08293152 80.09638977 C37.5627948 79.57914337 37.04265808 79.06189697 36.50675964 78.52897644 C35.95434097 77.97969986 35.4019223 77.43042328 34.83276367 76.86450195 C28.79391321 70.85821888 22.7600677 64.84693417 16.72910595 58.83273029 C13.08447544 55.19858656 9.43797726 51.56635648 5.78735352 47.93823242 C2.25002138 44.42255598 -1.28246889 40.90208222 -4.81159019 37.37816429 C-6.15792293 36.03553517 -7.50601856 34.69467148 -8.85587502 33.3555851 C-10.73513521 31.49074642 -12.60814099 29.61984108 -14.47973633 27.74731445 C-15.04227615 27.19196518 -15.60481598 26.63661591 -16.18440247 26.06443787 C-20 22.22810999 -20 22.22810999 -20 20 C-20.61875 19.731875 -21.2375 19.46375 -21.875 19.1875 C-24 18 -24 18 -26 15 C-26.33281446 11.08943005 -26.2558925 8.27104412 -24 5 C-17.70062429 -0.52773726 -8.03183411 -0.54638327 0 0 Z " fill="#A9B329" transform="translate(121,171)"/>
<path d="M0 0 C0.9355925 -0.00974854 1.871185 -0.01949707 2.83512878 -0.02954102 C23.24416486 -0.1984297 42.96079539 -0.03089418 63.0078125 4.23828125 C63.93158691 4.42551758 64.85536133 4.61275391 65.80712891 4.80566406 C111.28586786 14.15160545 152.47243686 35.90109891 186.6640625 67.1171875 C188.80705562 69.05659628 190.99125888 70.93157424 193.1953125 72.80078125 C196.40716995 75.61035835 199.22808486 78.58191996 201.98046875 81.83984375 C203.52869966 83.67146952 205.09682178 85.47121074 206.69140625 87.26171875 C222.88012371 105.56853604 235.67592217 126.12833412 246.0078125 148.23828125 C246.54704346 149.38127686 246.54704346 149.38127686 247.09716797 150.54736328 C260.46656896 179.21762319 268.97097327 211.47691951 269.24609375 243.23046875 C269.25584229 244.16606125 269.26559082 245.10165375 269.27563477 246.06559753 C269.44452345 266.47463361 269.27698793 286.19126414 265.0078125 306.23828125 C264.82057617 307.16205566 264.63333984 308.08583008 264.44042969 309.03759766 C255.0944883 354.51633661 233.34499484 395.70290561 202.12890625 429.89453125 C200.18949747 432.03752437 198.31451951 434.22172763 196.4453125 436.42578125 C193.6357354 439.6376387 190.66417379 442.45855361 187.40625 445.2109375 C185.57462423 446.75916841 183.77488301 448.32729053 181.984375 449.921875 C163.67755771 466.11059246 143.11775963 478.90639092 121.0078125 489.23828125 C120.24581543 489.59776855 119.48381836 489.95725586 118.69873047 490.32763672 C90.02847056 503.69703771 57.76917424 512.20144202 26.015625 512.4765625 C25.0800325 512.48631104 24.14444 512.49605957 23.18049622 512.50610352 C2.77146014 512.6749922 -16.94517039 512.50745668 -36.9921875 508.23828125 C-37.91596191 508.05104492 -38.83973633 507.86380859 -39.79150391 507.67089844 C-85.27024286 498.32495705 -126.45681186 476.57546359 -160.6484375 445.359375 C-162.79143062 443.41996622 -164.97563388 441.54498826 -167.1796875 439.67578125 C-170.39154495 436.86620415 -173.21245986 433.89464254 -175.96484375 430.63671875 C-177.51307466 428.80509298 -179.08119678 427.00535176 -180.67578125 425.21484375 C-196.86449871 406.90802646 -209.66029717 386.34822838 -219.9921875 364.23828125 C-220.3516748 363.47628418 -220.71116211 362.71428711 -221.08154297 361.92919922 C-234.45094396 333.25893931 -242.95534827 300.99964299 -243.23046875 269.24609375 C-243.24021729 268.31050125 -243.24996582 267.37490875 -243.26000977 266.41096497 C-243.42889845 246.00192889 -243.26136293 226.28529836 -238.9921875 206.23828125 C-238.80495117 205.31450684 -238.61771484 204.39073242 -238.42480469 203.43896484 C-229.0788633 157.96022589 -207.32936984 116.77365689 -176.11328125 82.58203125 C-174.17387247 80.43903813 -172.29889451 78.25483487 -170.4296875 76.05078125 C-167.6201104 72.8389238 -164.64854879 70.01800889 -161.390625 67.265625 C-159.55899923 65.71739409 -157.75925801 64.14927197 -155.96875 62.5546875 C-137.66193271 46.36597004 -117.10213463 33.57017158 -94.9921875 23.23828125 C-93.84919189 22.69905029 -93.84919189 22.69905029 -92.68310547 22.14892578 C-64.01284556 8.77952479 -31.75354924 0.27512048 0 0 Z M-31.9921875 7.23828125 C-32.69334183 7.35840576 -33.39449615 7.47853027 -34.11689758 7.60229492 C-81.20196135 15.71424999 -128.19276609 39.12810678 -161.453125 73.69921875 C-163.05746354 75.30355729 -164.74147445 76.73356389 -166.4921875 78.17578125 C-170.43724059 81.50852011 -173.68168199 85.28703273 -176.9921875 89.23828125 C-178.136875 90.56859375 -178.136875 90.56859375 -179.3046875 91.92578125 C-188.98092026 103.29535475 -197.45915529 115.33934834 -204.9921875 128.23828125 C-205.3840625 128.90311523 -205.7759375 129.56794922 -206.1796875 130.25292969 C-215.48132764 146.13112009 -222.63835194 162.62889695 -227.9921875 180.23828125 C-228.3030127 181.23964111 -228.3030127 181.23964111 -228.62011719 182.26123047 C-232.55773455 195.05997617 -235.01800034 208.00435437 -236.9921875 221.23828125 C-237.11223145 222.016875 -237.23227539 222.79546875 -237.35595703 223.59765625 C-241.21361659 249.53768592 -239.36106446 275.52912067 -234.9921875 301.23828125 C-234.78422056 302.61164217 -234.57806805 303.98528118 -234.375 305.359375 C-232.89264707 314.14180848 -230.16580262 322.61500333 -227.5546875 331.11328125 C-227.17094971 332.36302734 -226.78721191 333.61277344 -226.3918457 334.90039062 C-224.2955782 341.56485072 -222.00290525 347.93750784 -218.9921875 354.23828125 C-218.36050659 355.61113281 -218.36050659 355.61113281 -217.71606445 357.01171875 C-206.18017671 382.04368203 -192.16045083 403.54208826 -173.9921875 424.23828125 C-173.52441895 424.77453125 -173.05665039 425.31078125 -172.57470703 425.86328125 C-168.40424796 430.66444728 -168.40424796 430.66444728 -163.9921875 435.23828125 C-163.3321875 435.23828125 -162.6721875 435.23828125 -161.9921875 435.23828125 C-161.4971875 436.72328125 -161.4971875 436.72328125 -160.9921875 438.23828125 C-159.54162373 439.78623064 -159.54162373 439.78623064 -157.6796875 441.30078125 C-156.95007813 441.91695313 -156.22046875 442.533125 -155.46875 443.16796875 C-154.65148437 443.85117187 -153.83421875 444.534375 -152.9921875 445.23828125 C-152.13367188 445.98335938 -151.27515625 446.7284375 -150.390625 447.49609375 C-135.79568077 460.00030217 -119.93251646 470.19844475 -102.9921875 479.23828125 C-102.16799316 479.67914063 -101.34379883 480.12 -100.49462891 480.57421875 C-44.78692829 509.86486397 24.93731781 515.81609334 85.0078125 497.23828125 C115.05859592 487.7251328 143.28467137 473.88724058 168.0078125 454.23828125 C168.90371094 453.53445313 169.79960937 452.830625 170.72265625 452.10546875 C178.14331922 446.16467974 185.1136484 439.77427656 192.0078125 433.23828125 C192.76191406 432.52671875 193.51601563 431.81515625 194.29296875 431.08203125 C199.16932245 426.35109565 203.48800567 421.24074187 207.69042969 415.90625 C208.61530326 414.73524625 209.54618389 413.56897395 210.48144531 412.40625 C218.86225353 401.9707583 226.08587712 391.14423523 232.70898438 379.51464844 C233.83671712 377.53814841 234.98832577 375.57864366 236.1484375 373.62109375 C243.20758783 361.19584134 248.05309644 347.60845422 253.0078125 334.23828125 C253.29309814 333.47676758 253.57838379 332.71525391 253.87231445 331.93066406 C256.19859436 325.38101874 257.63926464 318.60246693 259.11499023 311.82128906 C259.56383325 309.76792252 260.02653157 307.71802324 260.49023438 305.66796875 C264.29142008 288.56353011 265.48149593 271.74333765 265.5078125 254.23828125 C265.510159 253.23682068 265.51250549 252.23536011 265.5149231 251.20355225 C265.49702277 232.60825326 263.50464676 215.27547231 259.0078125 197.23828125 C258.59885742 195.5821582 258.59885742 195.5821582 258.18164062 193.89257812 C247.95858242 153.71130141 228.16712198 115.83704789 199.40625 85.8125 C197.0078125 83.23828125 197.0078125 83.23828125 195.0078125 80.23828125 C194.3478125 80.23828125 193.6878125 80.23828125 193.0078125 80.23828125 C192.78996094 79.68527344 192.57210938 79.13226563 192.34765625 78.5625 C190.58215188 75.49989038 188.18310085 73.37357881 185.5703125 71.05078125 C185.03390137 70.56810791 184.49749023 70.08543457 183.94482422 69.58813477 C161.89438278 49.88935118 136.64571864 32.99311991 109.0078125 22.23828125 C108.26402344 21.92761719 107.52023437 21.61695312 106.75390625 21.296875 C104.18822158 20.23044259 101.60326139 19.23036403 99.0078125 18.23828125 C98.35409668 17.98288574 97.70038086 17.72749023 97.02685547 17.46435547 C83.00409869 12.0404882 68.84690098 8.61347254 54.0078125 6.23828125 C52.28727661 5.95682251 52.28727661 5.95682251 50.53198242 5.66967773 C39.37089727 4.04906653 28.28487755 3.89932606 17.01928711 3.92260742 C13.84258385 3.92575915 10.66682284 3.90224795 7.49023438 3.87695312 C-5.92107402 3.83619223 -18.7862889 4.92021127 -31.9921875 7.23828125 Z " fill="#F1F2E5" transform="translate(242.9921875,-0.23828125)"/>
<path d="M0 0 C0 12.21 0 24.42 0 37 C-40.26 37 -80.52 37 -122 37 C-122 24.79 -122 12.58 -122 0 C-103.53137004 -6.92573624 -103.53137004 -6.92573624 -95.25 -8.75 C-94.42113281 -8.94464844 -93.59226563 -9.13929688 -92.73828125 -9.33984375 C-60.20861194 -16.80813455 -30.39163172 -13.18460494 0 0 Z " fill="#A6D7DD" transform="translate(317,245)"/>
<path d="M0 0 C20.79 0 41.58 0 63 0 C63 29.04 63 58.08 63 88 C42.21 88 21.42 88 0 88 C0 58.96 0 29.92 0 0 Z " fill="#018597" transform="translate(225,282)"/>
<path d="M0 0 C1.23121582 -0.00137466 2.46243164 -0.00274933 3.73095703 -0.00416565 C5.10269189 -0.00062628 6.47442651 0.00300853 7.84616089 0.00672913 C9.28486123 0.00701108 10.72356171 0.00685311 12.16226196 0.00628662 C16.07525441 0.00599895 19.98821638 0.01189074 23.90120173 0.01886058 C27.98782352 0.02509921 32.07444596 0.02569832 36.16107178 0.02688599 C43.90294238 0.02999779 51.64479892 0.03820917 59.38666332 0.04823548 C68.19911567 0.05940127 77.01156868 0.06490824 85.82402635 0.06993091 C103.95494789 0.0803919 122.08585548 0.09818917 140.21676636 0.12025452 C140.21676636 8.04025452 140.21676636 15.96025452 140.21676636 24.12025452 C121.67551581 24.16656328 103.13428161 24.20224934 84.59298515 24.22387886 C75.9838349 24.234189 67.37472124 24.24824435 58.76559448 24.27113342 C51.26139938 24.2910753 43.75723078 24.30397286 36.25300992 24.30843151 C32.28002778 24.31103753 28.30712148 24.3171574 24.33416367 24.33171463 C20.59302054 24.34531113 16.85198435 24.34947298 13.11081886 24.34646988 C11.08661662 24.34728057 9.06242596 24.35803139 7.03825378 24.36909485 C5.82678177 24.36634552 4.61530975 24.36359619 3.36712646 24.36076355 C1.79362584 24.36352893 1.79362584 24.36352893 0.18833733 24.36635017 C-3.83011171 24.03355555 -7.40057319 23.21684729 -10.59573364 20.68275452 C-13.179646 17.28286983 -13.16934176 13.51007314 -13.14260864 9.41322327 C-12.53285002 5.52269816 -10.59488548 3.79801817 -7.78323364 1.12025452 C-5.08999916 -0.22636272 -3.01670801 -0.00258723 0 0 Z " fill="#00536F" transform="translate(115.78323364257813,369.87974548339844)"/>
<path d="M0 0 C10.23 0 20.46 0 31 0 C31 29.04 31 58.08 31 88 C20.77 88 10.54 88 0 88 C0 58.96 0 29.92 0 0 Z " fill="#0095AE" transform="translate(225,282)"/>
<path d="M0 0 C0 15.84 0 31.68 0 48 C-19.8 48 -39.6 48 -60 48 C-60 36.12 -60 24.24 -60 12 C-40.00653625 3.11401611 -21.9862129 0 0 0 Z " fill="#FCFCFB" transform="translate(256,233)"/>
<path d="M0 0 C3.67587224 1.80624757 6.18158504 3.60234416 8.125 7.3125 C8.6875 10.3125 8.6875 10.3125 8.125 13.3125 C4.30617874 18.71152316 -1.63835662 21.45836278 -7.875 23.3125 C-17.81893734 24.36488214 -25.76254905 23.44190739 -33.875 17.3125 C-36.59722481 14.76590259 -36.85284029 13.71137477 -37.0625 9.9375 C-35.40184483 4.86813158 -32.33740264 2.98662997 -27.875 0.3125 C-27.30652344 -0.06519531 -26.73804688 -0.44289062 -26.15234375 -0.83203125 C-18.77910722 -3.6017376 -7.30772142 -2.70210657 0 0 Z " fill="#048695" transform="translate(408.875,172.6875)"/>
<path d="M0 0 C3.62668252 2.85777456 5.29920998 4.62574493 6.3984375 9.1796875 C5.46501396 12.78003546 4.38574573 14.34473542 1.34375 16.48828125 C-8.20507303 22.08233422 -18.44571545 21.41323647 -29.05859375 19.25390625 C-33.83606668 17.87237531 -36.68752647 15.73824155 -39.4765625 11.5546875 C-39.80937696 7.64411755 -39.732455 4.82573162 -37.4765625 1.5546875 C-28.93954835 -5.93658995 -9.52632449 -5.55952691 0 0 Z " fill="#0496A9" transform="translate(134.4765625,174.4453125)"/>
<path d="M0 0 C1.13308594 -0.02578125 2.26617187 -0.0515625 3.43359375 -0.078125 C6.85078663 0.28023231 8.21248445 0.77600281 10.5625 3.25 C11.41657044 8.28901558 11.03332005 11.1542904 8.125 15.375 C4.64321885 19.56971728 0.43317835 22.8007446 -4.4375 25.25 C-5.4275 25.25 -6.4175 25.25 -7.4375 25.25 C-7.7675 26.24 -8.0975 27.23 -8.4375 28.25 C-10.85604446 28.38536629 -13.26699783 28.48420279 -15.6875 28.5625 C-16.36941406 28.60439453 -17.05132812 28.64628906 -17.75390625 28.68945312 C-21.52800505 28.78105746 -23.09608931 28.56498237 -25.91015625 25.96875 C-27.63314216 22.90174695 -27.89218678 20.82844292 -27.2265625 17.36328125 C-24.26068432 9.42001344 -16.66416304 4.9012336 -9.4375 1.25 C-6.11752061 0.1433402 -3.49443373 0.04759728 0 0 Z " fill="#058793" transform="translate(345.4375,127.75)"/>
<path d="M0 0 C8.4994962 1.99988146 16.80409389 7.32358504 21.75390625 14.56640625 C23.3628051 17.70855039 23.5810318 19.51380918 23 23 C21.0625 25.875 21.0625 25.875 18 28 C11.25386187 29.24405969 2.77207836 27.69413015 -3 24 C-3.33 23.34 -3.66 22.68 -4 22 C-4.721875 21.608125 -5.44375 21.21625 -6.1875 20.8125 C-10.45217917 18.0641512 -14.01270328 14.78521602 -15.7421875 9.90625 C-16.125 7.8125 -16.125 7.8125 -16 4 C-11.74628445 -1.66827661 -6.50251662 -0.77257623 0 0 Z " fill="#0696A7" transform="translate(171,128)"/>
<path d="M0 0 C0.886875 0.66 1.77375 1.32 2.6875 2 C3.1395856 5.79751908 2.88363 7.66377714 0.9375 11 C-5.3143707 17.60113722 -13.33062895 20.38234068 -22.25 20.6875 C-26.80610882 20.70187258 -28.64244319 20.53247181 -32.2421875 17.671875 C-34.3125 15 -34.3125 15 -34.5 11.5625 C-32.70382284 6.17396853 -30.01368354 3.57487777 -25.1484375 0.73828125 C-17.46147616 -2.82977084 -7.65942834 -4.34137639 0 0 Z " fill="#068792" transform="translate(362.3125,181)"/>
<path d="M0 0 C6.39749109 2.17880268 13.04731237 5.35330338 17 11 C17.5625 14.0625 17.5625 14.0625 17 17 C15.1329009 19.30275556 13.64352259 20.67823871 11 22 C0.98399282 22.88804715 -7.56206958 21.76396932 -15.5625 15.375 C-18.59184224 12.4233332 -18.94236368 11.79249939 -19.25 7.5625 C-19 4 -19 4 -17.625 2.125 C-12.45822905 -1.45199527 -6.01456706 -0.65121972 0 0 Z " fill="#0696A7" transform="translate(167,179)"/>
<path d="M0 0 C1.31677734 -0.02126953 1.31677734 -0.02126953 2.66015625 -0.04296875 C4.9375 0.1875 4.9375 0.1875 6.9375 2.1875 C7.4053919 6.86641899 7.46282889 9.1952121 5.25 13.375 C0.46629074 19.19302477 -4.93961568 25.38493979 -12.73046875 26.60546875 C-15.30121604 26.68337018 -17.55008892 26.74788909 -20.0625 26.1875 C-22.56554378 22.43293433 -22.51530074 20.64004066 -22.0625 16.1875 C-17.45668445 7.65821194 -10.02042899 0.07378814 0 0 Z " fill="#028695" transform="translate(307.0625,156.8125)"/>
<path d="M0 0 C6.80663645 2.56138236 12.54866485 7.28821025 17 13 C18.27422816 16.63964617 18.21301154 20.16579235 18 24 C15.4833762 26.5166238 14.43509292 26.38193779 10.9375 26.5 C3.09088027 26.36630923 -1.30799027 22.40562572 -6.9375 17.375 C-10.01167357 13.83504255 -11.10809452 11.60475836 -11.3125 6.9375 C-11 3 -11 3 -10 1 C-6.65517871 -0.67241065 -3.58746623 -0.64999388 0 0 Z " fill="#0596A8" transform="translate(209,157)"/>
<path d="M0 0 C3.3 0 6.6 0 10 0 C10 0.66 10 1.32 10 2 C10.845625 2.185625 11.69125 2.37125 12.5625 2.5625 C17.6192199 4.67712832 21.2746959 8.25981113 24.1953125 12.8984375 C25.18008523 15.47031969 25.19724862 17.50455248 25.125 20.25 C25.10695312 21.14203125 25.08890625 22.0340625 25.0703125 22.953125 C25.04710937 23.62859375 25.02390625 24.3040625 25 25 C21.5208866 26.98255464 19.09933683 27.25318363 15.08203125 26.58984375 C8.60097014 24.75374576 4.63559453 19.95622809 1.16015625 14.4140625 C-1.13202428 9.64447473 -1.67102487 5.0130746 0 0 Z " fill="#0997A5" transform="translate(192,198)"/>
<path d="M0 0 C0.78246094 -0.01417969 1.56492187 -0.02835938 2.37109375 -0.04296875 C4.5625 0.1875 4.5625 0.1875 7.5625 2.1875 C7.97093923 4.89953652 7.69586867 7.4312142 7.5625 10.1875 C6.9025 10.1875 6.2425 10.1875 5.5625 10.1875 C5.376875 11.033125 5.19125 11.87875 5 12.75 C2.65278479 18.36290594 -1.46801311 22.51881951 -7 25.125 C-10.44592252 26.19010332 -12.86733567 26.67434059 -16.4375 26.1875 C-18.3125 25.125 -18.3125 25.125 -19.4375 23.1875 C-20.07238371 18.47122099 -19.468594 15.08808648 -16.91796875 11.02734375 C-12.48116086 5.51352709 -7.31606674 0.06006623 0 0 Z " fill="#078791" transform="translate(314.4375,197.8125)"/>
<path d="M0 0 C2.44950621 2.44950621 2.32271254 3.24723021 2.375 6.625 C2.22246479 12.85202583 0.52170067 17.20342201 -3.6484375 21.828125 C-6.32672006 24.3309742 -8.17993873 25.83598775 -11.8125 26.5625 C-14 26 -14 26 -16 23 C-16.75716916 15.80689298 -15.19394216 9.01037119 -10.609375 3.25390625 C-7.23000551 0.11464985 -4.51272678 -0.71793381 0 0 Z " fill="#068791" transform="translate(280,190)"/>
<path d="M0 0 C4.62623983 1.29534715 7.13997045 3.46781493 9.875 7.375 C11.72796183 11.08092367 12.27757548 14.30942207 12.3125 18.4375 C12.32667969 19.20191406 12.34085938 19.96632812 12.35546875 20.75390625 C12.125 22.875 12.125 22.875 10.125 25.875 C7.3125 26.375 7.3125 26.375 4.125 25.875 C1.5625 23.875 1.5625 23.875 -0.875 20.875 C-1.34421875 20.30523437 -1.8134375 19.73546875 -2.296875 19.1484375 C-5.88214125 14.25394482 -6.41058901 10.19411389 -6.34375 4.1953125 C-5.57842768 0.40696703 -3.64253329 -0.15837101 0 0 Z " fill="#0696A7" transform="translate(235.875,190.125)"/>
<path d="M0 0 C2.7421875 -0.375 2.7421875 -0.375 6 0 C7.73213211 2.030338 8.86223621 3.69958312 10.125 6 C10.88606035 7.28344496 11.65327924 8.56325279 12.42578125 9.83984375 C12.83393066 10.51644043 13.24208008 11.19303711 13.66259766 11.89013672 C16.01143855 15.59562833 18.65883846 19.0719082 21.3125 22.5625 C21.81604004 23.22830078 22.31958008 23.89410156 22.83837891 24.58007812 C24.95814465 27.36868481 27.08881759 30.10472522 29.35546875 32.77734375 C31 35 31 35 31 38 C28.359375 38.4375 28.359375 38.4375 25 38 C22.64336091 35.99354423 20.99869543 33.53766618 19.25 31 C18.73703369 30.28537598 18.22406738 29.57075195 17.69555664 28.83447266 C11.18592561 19.64806849 4.89100635 10.15704193 0 0 Z " fill="#FAFBEF" transform="translate(32,381)"/>
<path d="M0 0 C1.05316406 0.10441406 2.10632813 0.20882813 3.19140625 0.31640625 C-0.25812673 5.18113224 -3.86891101 9.52663601 -8.16015625 13.66796875 C-10.01912613 15.47039769 -10.01912613 15.47039769 -12.24609375 18.31640625 C-17.60080871 24.58534084 -24.16202401 29.49057237 -30.80859375 34.31640625 C-31.31705121 30.92234407 -31.59905366 28.38640126 -29.48583984 25.52587891 C-27.5550257 23.63613471 -25.55849137 21.87415397 -23.49609375 20.12890625 C-22.01825242 18.82600576 -20.54431604 17.5186633 -19.07421875 16.20703125 C-18.34654297 15.55927734 -17.61886719 14.91152344 -16.86914062 14.24414062 C-12.99593122 10.62057884 -9.67691993 6.52395822 -6.3359375 2.4140625 C-3.80859375 0.31640625 -3.80859375 0.31640625 0 0 Z " fill="#FDFDF9" transform="translate(450.80859375,418.68359375)"/>
<path d="M0 0 C17.34042553 8.57446809 17.34042553 8.57446809 25 13 C25 14.98 25 16.96 25 19 C22.14301417 17.7563762 19.28997454 16.50393269 16.4375 15.25 C15.23770508 14.72792969 15.23770508 14.72792969 14.01367188 14.1953125 C9.15591104 12.05393222 4.5609258 9.71818934 0 7 C0 4.69 0 2.38 0 0 Z " fill="#EDEDE5" transform="translate(130,473)"/>
<path d="M0 0 C0 1.65 0 3.3 0 5 C-8.16345397 9.48445738 -16.20427711 13.85423558 -25 17 C-25 14.69 -25 12.38 -25 10 C-21.58943784 8.32062419 -18.1706306 6.65875927 -14.75 5 C-13.29787109 4.28457031 -13.29787109 4.28457031 -11.81640625 3.5546875 C-10.88183594 3.10351562 -9.94726562 2.65234375 -8.984375 2.1875 C-8.12553711 1.76855469 -7.26669922 1.34960938 -6.38183594 0.91796875 C-4 0 -4 0 0 0 Z " fill="#F9F9F0" transform="translate(382,475)"/>
<path d="M0 0 C1.32 0 2.64 0 4 0 C4 12.54 4 25.08 4 38 C2.68 37.67 1.36 37.34 0 37 C0 24.79 0 12.58 0 0 Z " fill="#EDEEE6" transform="translate(0,242)"/>
<path d="M0 0 C2.625 -0.1875 2.625 -0.1875 5 0 C3.48611133 5.02264106 1.36904087 9.53096133 -1 14.1875 C-1.35578125 14.89841797 -1.7115625 15.60933594 -2.078125 16.34179688 C-3.60206391 19.36408617 -5.11709369 22.17564054 -7 25 C-8.32 25 -9.64 25 -11 25 C-10.44912691 19.60144375 -8.52800376 15.54713997 -6.0625 10.8125 C-5.70220703 10.10158203 -5.34191406 9.39066406 -4.97070312 8.65820312 C-3.43043603 5.64291045 -1.88274622 2.82411932 0 0 Z " fill="#FBFBF2" transform="translate(487,356)"/>
<path d="M0 0 C2.3125 0.0625 2.3125 0.0625 5 1 C6.33124188 3.38514171 7.13187968 5.42855355 8 8 C8.42667969 9.14597656 8.85335938 10.29195313 9.29296875 11.47265625 C13 21.48606615 13 21.48606615 13 25 C10.63989258 24.78662109 10.63989258 24.78662109 8 24 C6.69799805 22.00634766 6.69799805 22.00634766 5.76171875 19.4140625 C5.41689453 18.48335938 5.07207031 17.55265625 4.71679688 16.59375 C4.20729492 15.12421875 4.20729492 15.12421875 3.6875 13.625 C3.32849609 12.65304687 2.96949219 11.68109375 2.59960938 10.6796875 C0 3.50971726 0 3.50971726 0 0 Z " fill="#FBFBF1" transform="translate(11,331)"/>
<path d="M0 0 C-0.4125 0.64324219 -0.825 1.28648438 -1.25 1.94921875 C-3.92326497 6.13216238 -6.59161913 10.31596789 -9.17578125 14.5546875 C-9.71041992 15.43120972 -9.71041992 15.43120972 -10.25585938 16.32543945 C-11.27328065 17.99802549 -12.28710397 19.67279851 -13.30078125 21.34765625 C-15 24 -15 24 -17 26 C-18.32 25.34 -19.64 24.68 -21 24 C-11.46647609 8.47505198 -11.46647609 8.47505198 -7.6875 3 C-7.27886719 2.401875 -6.87023438 1.80375 -6.44921875 1.1875 C-4.34405991 -0.5374819 -2.6310874 -0.21154472 0 0 Z " fill="#EEEEE3" transform="translate(54,104)"/>
<path d="M0 0 C1.32 0 2.64 0 4 0 C2.48611133 5.02264106 0.36904087 9.53096133 -2 14.1875 C-2.35578125 14.89841797 -2.7115625 15.60933594 -3.078125 16.34179688 C-4.60206391 19.36408617 -6.11709369 22.17564054 -8 25 C-9.32 25 -10.64 25 -12 25 C-9.79979234 17.16176022 -5.90022929 5.90022929 0 0 Z " fill="#FBFBF1" transform="translate(33,129)"/>
<path d="M0 0 C2.2421875 0.0625 2.2421875 0.0625 5 1 C6.64021449 3.35517978 7.88051859 5.44948679 9.125 8 C9.47046875 8.67683838 9.8159375 9.35367676 10.171875 10.05102539 C12.60315471 14.91300482 14.52877425 19.75875828 16 25 C14.68 25.33 13.36 25.66 12 26 C11.74307373 25.45061768 11.48614746 24.90123535 11.22143555 24.33520508 C10.04621961 21.82633199 8.86689925 19.3194091 7.6875 16.8125 C7.28337891 15.94818359 6.87925781 15.08386719 6.46289062 14.19335938 C4.82027121 10.70780111 3.19101632 7.31836054 1.20703125 4.01171875 C0 2 0 2 0 0 Z " fill="#EBEDD8" transform="translate(475,129)"/>
<path d="M0 0 C0.91007812 0.00902344 1.82015625 0.01804688 2.7578125 0.02734375 C3.80582031 0.04474609 3.80582031 0.04474609 4.875 0.0625 C4.875 1.0525 4.875 2.0425 4.875 3.0625 C17.415 3.0625 29.955 3.0625 42.875 3.0625 C42.875 3.3925 42.875 3.7225 42.875 4.0625 C42.29221283 4.07280746 41.70942566 4.08311493 41.10897827 4.09373474 C34.97555886 4.20295246 28.84225295 4.31743759 22.70898438 4.43481445 C20.42808434 4.47779866 18.14715962 4.51949465 15.86621094 4.55981445 C-2.15016061 4.86863264 -2.15016061 4.86863264 -20.125 6.0625 C-20.125 5.0725 -20.125 4.0825 -20.125 3.0625 C-15.835 3.0625 -11.545 3.0625 -7.125 3.0625 C-7.125 2.4025 -7.125 1.7425 -7.125 1.0625 C-4.60024538 -0.19987731 -2.81299534 -0.03606404 0 0 Z " fill="#EBEDC3" transform="translate(238.125,-0.0625)"/>
<path d="M0 0 C2.85698583 1.2436238 5.71002546 2.49606731 8.5625 3.75 C9.36236328 4.09804688 10.16222656 4.44609375 10.98632812 4.8046875 C15.84408896 6.94606778 20.4390742 9.28181066 25 12 C25 13.65 25 15.3 25 17 C23.96101563 16.46890625 22.92203125 15.9378125 21.8515625 15.390625 C14.35401986 11.58429097 6.91070903 7.89045138 -1 5 C-0.67 3.35 -0.34 1.7 0 0 Z " fill="#ECEDDD" transform="translate(357,20)"/>
<path d="M0 0 C1.21236328 0.01353516 1.21236328 0.01353516 2.44921875 0.02734375 C3.37154297 0.04474609 3.37154297 0.04474609 4.3125 0.0625 C4.3125 1.7125 4.3125 3.3625 4.3125 5.0625 C1.45944871 5.56970912 -1.39466814 6.06843634 -4.25 6.5625 C-5.04986328 6.70558594 -5.84972656 6.84867187 -6.67382812 6.99609375 C-11.42274598 7.81019395 -15.86996077 8.21769589 -20.6875 8.0625 C-20.6875 6.7425 -20.6875 5.4225 -20.6875 4.0625 C-16.3975 4.0625 -12.1075 4.0625 -7.6875 4.0625 C-7.6875 3.0725 -7.6875 2.0825 -7.6875 1.0625 C-4.80538698 0.10179566 -2.98899956 -0.04331883 0 0 Z " fill="#F7F8F2" transform="translate(301.6875,502.9375)"/>
<path d="M0 0 C0 1.65 0 3.3 0 5 C-0.55985596 5.26216309 -1.11971191 5.52432617 -1.6965332 5.79443359 C-4.23636525 6.98546548 -6.77444356 8.18018931 -9.3125 9.375 C-10.63411133 9.99375 -10.63411133 9.99375 -11.98242188 10.625 C-12.82998047 11.02460938 -13.67753906 11.42421875 -14.55078125 11.8359375 C-15.33106689 12.20251465 -16.11135254 12.5690918 -16.9152832 12.94677734 C-19.21246293 14.05504362 -19.21246293 14.05504362 -22 16 C-22.99 16 -23.98 16 -25 16 C-25 14.68 -25 13.36 -25 12 C-2.89320388 0 -2.89320388 0 0 0 Z " fill="#FBFCF1" transform="translate(155,20)"/>
<path d="M0 0 C2.475 0.495 2.475 0.495 5 1 C5.50612064 3.8740422 6.00506541 6.74902873 6.5 9.625 C6.64308594 10.43324219 6.78617187 11.24148437 6.93359375 12.07421875 C7.67876251 16.43877864 8.17272306 20.55238129 8 25 C6.68 25 5.36 25 4 25 C2.68 16.75 1.36 8.5 0 0 Z " fill="#F5F5EF" transform="translate(503,205)"/>
<path d="M0 0 C0 0.99 0 1.98 0 3 C-4.29 3 -8.58 3 -13 3 C-13 4.32 -13 5.64 -13 7 C-15.52475462 8.26237731 -17.31200466 8.09856404 -20.125 8.0625 C-21.03507812 8.05347656 -21.94515625 8.04445313 -22.8828125 8.03515625 C-23.58148438 8.02355469 -24.28015625 8.01195312 -25 8 C-25.33 6.02 -25.66 4.04 -26 2 C-22.4169389 1.66369671 -18.83351076 1.33147475 -15.25 1 C-14.23421875 0.90460938 -13.2184375 0.80921875 -12.171875 0.7109375 C-11.1921875 0.62070312 -10.2125 0.53046875 -9.203125 0.4375 C-8.30239258 0.35371094 -7.40166016 0.26992188 -6.47363281 0.18359375 C-4.32080902 0.02381054 -2.15874522 0 0 0 Z " fill="#ECECDE" transform="translate(294,504)"/>
<path d="M0 0 C0.99 0 1.98 0 3 0 C2.69414597 3.79223378 2.37919391 7.5836573 2.0625 11.375 C1.97548828 12.45523438 1.88847656 13.53546875 1.79882812 14.6484375 C1.71181641 15.6796875 1.62480469 16.7109375 1.53515625 17.7734375 C1.456604 18.72653809 1.37805176 19.67963867 1.29711914 20.66162109 C1 23 1 23 0 25 C-1.32 25 -2.64 25 -4 25 C-4.02712066 23.56260487 -4.04645067 22.12506137 -4.0625 20.6875 C-4.07410156 19.88699219 -4.08570313 19.08648437 -4.09765625 18.26171875 C-4 16 -4 16 -3 13 C-2.01 13 -1.02 13 0 13 C0 8.71 0 4.42 0 0 Z " fill="#EBEDC7" transform="translate(4,217)"/>
<path d="M0 0 C0.99 0 1.98 0 3 0 C3.16589226 6.02741895 2.57114133 11.57494793 1.5 17.5 C1.35691406 18.32242187 1.21382813 19.14484375 1.06640625 19.9921875 C0.71693088 21.99584627 0.35931844 23.99808298 0 26 C-1.32 26 -2.64 26 -4 26 C-3.67 21.71 -3.34 17.42 -3 13 C-2.01 13 -1.02 13 0 13 C0 8.71 0 4.42 0 0 Z " fill="#FBFBF9" transform="translate(508,280)"/>
<path d="M0 0 C0 1.98 0 3.96 0 6 C-3.74235319 8.44989101 -7.44225419 8.23086143 -11.75 8.125 C-12.44738281 8.11597656 -13.14476562 8.10695313 -13.86328125 8.09765625 C-15.57566958 8.07419888 -17.28788004 8.03833104 -19 8 C-17.31230998 4.62461996 -13.44906374 4.09849494 -10.0625 2.875 C-9.32064453 2.59785156 -8.57878906 2.32070313 -7.81445312 2.03515625 C-2.28544489 0 -2.28544489 0 0 0 Z " fill="#EBECDC" transform="translate(357,486)"/>
<path d="M0 0 C0 1.98 0 3.96 0 6 C-8.42857143 8.28571429 -8.42857143 8.28571429 -13 8 C-13 6.68 -13 5.36 -13 4 C-14.65 4 -16.3 4 -18 4 C-18 3.67 -18 3.34 -18 3 C-16.87851562 2.80083984 -16.87851562 2.80083984 -15.734375 2.59765625 C-14.25710938 2.33275391 -14.25710938 2.33275391 -12.75 2.0625 C-11.77546875 1.88847656 -10.8009375 1.71445312 -9.796875 1.53515625 C-8.13063818 1.21633719 -6.46968439 0.86169827 -4.828125 0.43359375 C-3 0 -3 0 0 0 Z " fill="#EBEBE0" transform="translate(319,499)"/>
<path d="M0 0 C5.28 1.32 10.56 2.64 16 4 C15.01 4.33 14.02 4.66 13 5 C13 6.65 13 8.3 13 10 C8.71 8.68 4.42 7.36 0 6 C0 4.02 0 2.04 0 0 Z " fill="#ECEDE2" transform="translate(180,495)"/>
<path d="M0 0 C0.99 0.33 1.98 0.66 3 1 C2.67 4.63 2.34 8.26 2 12 C1.01 12 0.02 12 -1 12 C-1 16.29 -1 20.58 -1 25 C-1.99 25 -2.98 25 -4 25 C-2.64974619 2.64974619 -2.64974619 2.64974619 0 0 Z " fill="#FCFCFB" transform="translate(5,205)"/>
<path d="M0 0 C4.15723417 -0.33257873 6.63127225 -0.17430766 10.4375 1.625 C13 4 13 4 13.375 7.25 C13.25125 8.1575 13.1275 9.065 13 10 C9.67865043 8.85828608 6.70347797 7.34101632 3.6875 5.5625 C2.99011719 5.15128906 2.29273437 4.74007813 1.57421875 4.31640625 C1.05472656 3.88199219 0.53523438 3.44757813 0 3 C0 2.01 0 1.02 0 0 Z " fill="#FDFDF7" transform="translate(117,469)"/>
<path d="M0 0 C0 1.65 0 3.3 0 5 C-6.435 6.98 -6.435 6.98 -13 9 C-13 7.02 -13 5.04 -13 3 C-11.58603098 2.49242138 -10.16868271 1.99425075 -8.75 1.5 C-7.96109375 1.2215625 -7.1721875 0.943125 -6.359375 0.65625 C-4 0 -4 0 0 0 Z " fill="#FDFDF7" transform="translate(332,496)"/>
<path d="M0 0 C1.79206547 0.14084796 3.58364917 0.28783701 5.375 0.4375 C6.87160156 0.55931641 6.87160156 0.55931641 8.3984375 0.68359375 C11 1 11 1 13 2 C13 3.65 13 5.3 13 7 C11.3954444 6.85851011 9.79136233 6.71164314 8.1875 6.5625 C7.29417969 6.48128906 6.40085938 6.40007812 5.48046875 6.31640625 C3 6 3 6 0 5 C0 3.35 0 1.7 0 0 Z " fill="#FDFDF7" transform="translate(193,500)"/>
<path d="M0 0 C2.77579761 2.77579761 2.86061387 5.30306937 3.625 9.125 C3.88539062 10.40632813 4.14578125 11.68765625 4.4140625 13.0078125 C4.60742188 13.99523437 4.80078125 14.98265625 5 16 C2.1171875 15.3828125 2.1171875 15.3828125 -1 14 C-2.2421875 11.1796875 -2.2421875 11.1796875 -2.875 7.875 C-3.09929688 6.77929688 -3.32359375 5.68359375 -3.5546875 4.5546875 C-3.70164062 3.71164062 -3.84859375 2.86859375 -4 2 C-2.68 2 -1.36 2 0 2 C0 1.34 0 0.68 0 0 Z " fill="#EBECDB" transform="translate(11,316)"/>
<path d="M0 0 C1.65 0 3.3 0 5 0 C3.68 7.26 2.36 14.52 1 22 C0.67 22 0.34 22 0 22 C0 19.36 0 16.72 0 14 C-0.66 13.67 -1.32 13.34 -2 13 C-1.85769192 11.58297487 -1.71099254 10.1663904 -1.5625 8.75 C-1.48128906 7.96109375 -1.40007813 7.1721875 -1.31640625 6.359375 C-1.02365007 4.17635361 -0.57935581 2.1226818 0 0 Z " fill="#EDEFDD" transform="translate(7,192)"/>
<path d="M0 0 C0.33 0 0.66 0 1 0 C1.125 6.75 1.125 6.75 0 9 C0.99 9 1.98 9 3 9 C2.85904936 10.6254308 2.71207913 12.25034051 2.5625 13.875 C2.48128906 14.77992188 2.40007812 15.68484375 2.31640625 16.6171875 C2 19 2 19 1 21 C-0.65 21.33 -2.3 21.66 -4 22 C-2.68 14.74 -1.36 7.48 0 0 Z " fill="#EAEBDA" transform="translate(504,297)"/>
<path d="M0 0 C2.75 -0.375 2.75 -0.375 6 0 C8.86018057 3.16125221 9.93388802 5.10748829 10.25 9.375 C10.1675 10.24125 10.085 11.1075 10 12 C9.01 12.33 8.02 12.66 7 13 C5.83072457 11.02237345 4.66464427 9.04285742 3.5 7.0625 C2.8503125 5.96035156 2.200625 4.85820312 1.53125 3.72265625 C0 1 0 1 0 0 Z " fill="#FCFDF7" transform="translate(32,381)"/>
<path d="M0 0 C4.29 0 8.58 0 13 0 C13 1.65 13 3.3 13 5 C8.71 5 4.42 5 0 5 C0 3.35 0 1.7 0 0 Z " fill="#FDFDFA" transform="translate(256,507)"/>
<path d="M0 0 C4.62 2.31 9.24 4.62 14 7 C13.67 7.66 13.34 8.32 13 9 C11.58376784 9.05447047 10.16691809 9.09300508 8.75 9.125 C7.96109375 9.14820313 7.1721875 9.17140625 6.359375 9.1953125 C3.79268059 8.9828378 2.2083933 8.28654105 0 7 C0 4.69 0 2.38 0 0 Z " fill="#ECEDDF" transform="translate(130,473)"/>
<path d="M0 0 C1.65 0 3.3 0 5 0 C3.58192622 4.47238653 1.88695626 8.71146306 0 13 C-1.32 13 -2.64 13 -4 13 C-3.50269348 8.02693484 -2.44697666 4.36200187 0 0 Z " fill="#FBFCF4" transform="translate(487,356)"/>
<path d="M0 0 C1.65 0 3.3 0 5 0 C6.75747614 4.50353262 7.19294408 8.17639811 7 13 C5.68 13 4.36 13 3 13 C2.01 8.71 1.02 4.42 0 0 Z " fill="#FBFCF0" transform="translate(4,305)"/>
<path d="M0 0 C0.33 0 0.66 0 1 0 C1.45580933 7.90069513 1.45580933 7.90069513 -0.0625 11.5625 C-2.97233643 13.7214109 -5.4907966 13.26484554 -9 13 C-6.40841317 8.39273452 -3.37292376 4.06972538 0 0 Z " fill="#E9EADB" transform="translate(457,406)"/>
<path d="M0 0 C0 0.66 0 1.32 0 2 C-4.29 2 -8.58 2 -13 2 C-13 2.99 -13 3.98 -13 5 C-15.88211302 5.96070434 -17.69850044 6.10581883 -20.6875 6.0625 C-21.89986328 6.04896484 -21.89986328 6.04896484 -23.13671875 6.03515625 C-24.05904297 6.01775391 -24.05904297 6.01775391 -25 6 C-25 5.01 -25 4.02 -25 3 C-22.14694871 2.49279088 -19.29283186 1.99406366 -16.4375 1.5 C-15.63763672 1.35691406 -14.83777344 1.21382813 -14.01367188 1.06640625 C-9.26475402 0.25230605 -4.81753923 -0.15519589 0 0 Z " fill="#FDFEF9" transform="translate(231,1)"/>
<path d="M0 0 C1.62490954 -0.02698189 3.24994633 -0.04638757 4.875 -0.0625 C5.77992188 -0.07410156 6.68484375 -0.08570313 7.6171875 -0.09765625 C10 0 10 0 12 1 C12 2.98 12 4.96 12 7 C8.37 6.01 4.74 5.02 1 4 C0.67 2.68 0.34 1.36 0 0 Z " fill="#FDFDF9" transform="translate(168,494)"/>
<path d="M0 0 C3.96 0 7.92 0 12 0 C12 1.65 12 3.3 12 5 C10.37509046 5.02698189 8.75005367 5.04638757 7.125 5.0625 C5.76761719 5.07990234 5.76761719 5.07990234 4.3828125 5.09765625 C2 5 2 5 0 4 C0 2.68 0 1.36 0 0 Z " fill="#FEFEFC" transform="translate(231,507)"/>
<path d="M0 0 C-0.99 3.96 -1.98 7.92 -3 12 C-4.32 12.33 -5.64 12.66 -7 13 C-6.88652381 11.02013918 -6.7589065 9.04108402 -6.625 7.0625 C-6.55539062 5.96035156 -6.48578125 4.85820312 -6.4140625 3.72265625 C-6.27742188 2.82417969 -6.14078125 1.92570312 -6 1 C-4 0 -4 0 0 0 Z " fill="#FBFBF3" transform="translate(505,318)"/>
<path d="M0 0 C1.32 0 2.64 0 4 0 C3.45144652 4.571279 2.58255197 8.67435795 1 13 C-0.32 13 -1.64 13 -3 13 C-2.68991116 11.39536551 -2.37683713 9.79130769 -2.0625 8.1875 C-1.88847656 7.29417969 -1.71445313 6.40085938 -1.53515625 5.48046875 C-1 3 -1 3 0 0 Z " fill="#FCFCF2" transform="translate(11,179)"/>
<path d="M0 0 C1.32 0 2.64 0 4 0 C4.33872513 1.41538717 4.67074624 2.83237963 5 4.25 C5.185625 5.03890625 5.37125 5.8278125 5.5625 6.640625 C6 9 6 9 6 13 C4.68 13 3.36 13 2 13 C-0.28571429 4.57142857 -0.28571429 4.57142857 0 0 Z " fill="#FDFDF4" transform="translate(501,192)"/>
<path d="M0 0 C5 2 5 2 6.14453125 4.05859375 C6.36496094 4.84363281 6.58539063 5.62867188 6.8125 6.4375 C7.04582031 7.21996094 7.27914063 8.00242188 7.51953125 8.80859375 C8 11 8 11 8 14 C6.68 14.33 5.36 14.66 4 15 C2.68 10.05 1.36 5.1 0 0 Z " fill="#EDEEE1" transform="translate(496,178)"/>
<path d="M0 0 C2.44814179 3.0296652 4.09452853 6.07549599 5.6875 9.625 C6.12449219 10.58664063 6.56148438 11.54828125 7.01171875 12.5390625 C8 15 8 15 8 17 C6.68 17.33 5.36 17.66 4 18 C3.32187886 16.1291122 2.6580054 14.25305707 2 12.375 C1.443125 10.80878906 1.443125 10.80878906 0.875 9.2109375 C-0.00483564 5.98225494 -0.15988262 3.32755706 0 0 Z " fill="#EFF0EB" transform="translate(483,137)"/>
<path d="M0 0 C0 0.66 0 1.32 0 2 C1.65 2 3.3 2 5 2 C5 2.33 5 2.66 5 3 C2.56318413 3.50354867 0.12564561 4.00296756 -2.3125 4.5 C-3.00279297 4.64308594 -3.69308594 4.78617188 -4.40429688 4.93359375 C-7.32524773 5.52625044 -10.01108122 6 -13 6 C-13 4.68 -13 3.36 -13 2 C-4.57142857 -0.28571429 -4.57142857 -0.28571429 0 0 Z " fill="#EDEEE1" transform="translate(206,5)"/>
<path d="M0 0 C1.32 0 2.64 0 4 0 C4 4.29 4 8.58 4 13 C2.68 13 1.36 13 0 13 C0 8.71 0 4.42 0 0 Z " fill="#FDFDF6" transform="translate(0,242)"/>
<path d="M0 0 C4.29 1.32 8.58 2.64 13 4 C12.67 5.32 12.34 6.64 12 8 C11.43152344 7.79503906 10.86304688 7.59007812 10.27734375 7.37890625 C5.4915546 5.70907331 1.04056799 4.53623064 -4 4 C-2.68 3.67 -1.36 3.34 0 3 C0 2.01 0 1.02 0 0 Z " fill="#EDEEE0" transform="translate(319,7)"/>
<path d="M0 0 C2.5625 2.0625 2.5625 2.0625 5 5 C4.8125 8.8125 4.8125 8.8125 4 12 C0.01930733 9.12505529 -2.43571997 6.17882671 -5 2 C-3.35 2 -1.7 2 0 2 C0 1.34 0 0.68 0 0 Z " fill="#ECEDE4" transform="translate(63,417)"/>
<path d="M0 0 C7.425 0.99 7.425 0.99 15 2 C14.01 2.33 13.02 2.66 12 3 C12 3.66 12 4.32 12 5 C8.04 5 4.08 5 0 5 C0 3.35 0 1.7 0 0 Z " fill="#ECEDE1" transform="translate(206,502)"/>
<path d="M0 0 C0.77214844 0.00064453 1.54429687 0.00128906 2.33984375 0.00195312 C3.53673828 0.02612305 3.53673828 0.02612305 4.7578125 0.05078125 C5.54800781 0.04755859 6.33820313 0.04433594 7.15234375 0.04101562 C11.77581526 0.08332693 15.53626795 0.6092898 19.8828125 2.36328125 C16.60654875 3.34548065 13.65493131 3.47909039 10.2421875 3.4609375 C9.17226563 3.45771484 8.10234375 3.45449219 7 3.45117188 C5.88882812 3.44279297 4.77765625 3.43441406 3.6328125 3.42578125 C1.94285156 3.41901367 1.94285156 3.41901367 0.21875 3.41210938 C-2.55994967 3.40033522 -5.33854159 3.38388965 -8.1171875 3.36328125 C-5.34205084 1.01075226 -3.65226092 -0.01566585 0 0 Z " fill="#288F73" transform="translate(389.1171875,170.63671875)"/>
<path d="M0 0 C0 1.65 0 3.3 0 5 C-8.42857143 7.28571429 -8.42857143 7.28571429 -13 7 C-13 6.01 -13 5.02 -13 4 C-11.02144235 3.33152803 -9.04213695 2.66526889 -7.0625 2 C-5.96035156 1.62875 -4.85820312 1.2575 -3.72265625 0.875 C-1 0 -1 0 0 0 Z " fill="#FCFCF1" transform="translate(193,7)"/>
<path d="M0 0 C7.33834586 -0.36090226 7.33834586 -0.36090226 10.0625 1.125 C11.46771358 3.93542716 10.72549141 6.03208058 10 9 C8.70391053 8.06862408 7.41328368 7.1296434 6.125 6.1875 C5.40570313 5.66542969 4.68640625 5.14335937 3.9453125 4.60546875 C2 3 2 3 0 0 Z " fill="#ECECE7" transform="translate(82,444)"/>
<path d="M0 0 C1.6045556 0.14148989 3.20863767 0.28835686 4.8125 0.4375 C5.70582031 0.51871094 6.59914063 0.59992187 7.51953125 0.68359375 C10 1 10 1 13 2 C13 2.99 13 3.98 13 5 C11.58376784 5.05447047 10.16691809 5.09300508 8.75 5.125 C7.96109375 5.14820313 7.1721875 5.17140625 6.359375 5.1953125 C3.79268059 4.9828378 2.2083933 4.28654105 0 3 C0 2.01 0 1.02 0 0 Z " fill="#FBFCEE" transform="translate(306,5)"/>
<path d="M0 0 C0 1.32 0 2.64 0 4 C-5.67355671 3.38273804 -11.33861055 2.72054048 -17 2 C-17 1.67 -17 1.34 -17 1 C-11.2364368 -1.64812363 -6.09067424 -0.8019749 0 0 Z " fill="#EDEEDD" transform="translate(306,4)"/>
<path d="M0 0 C2.01822917 0.06510417 4.03645833 0.13020833 6.0546875 0.1953125 C2.99375526 4.13079681 0.56352776 6.87648037 -3.9453125 9.1953125 C-4.0703125 5.8203125 -4.0703125 5.8203125 -3.9453125 2.1953125 C-1.9453125 0.1953125 -1.9453125 0.1953125 0 0 Z " fill="#FDFDF9" transform="translate(423.9453125,443.8046875)"/>
<path d="M0 0 C0.99 0 1.98 0 3 0 C4.00496852 3.01490557 4.10335303 5.04181692 4.0625 8.1875 C4.05347656 9.08855469 4.04445313 9.98960937 4.03515625 10.91796875 C4.02355469 11.60503906 4.01195312 12.29210937 4 13 C2.68 12.67 1.36 12.34 0 12 C0 8.04 0 4.08 0 0 Z " fill="#FDFDF9" transform="translate(508,230)"/>
<path d="M0 0 C4.72373854 1.62378512 8.94181834 4.10993018 13 7 C13 7.33 13 7.66 13 8 C8.76438149 8.33884948 6.39223364 8.19968258 2.5625 6.25 C1.716875 5.5075 0.87125 4.765 0 4 C0 2.68 0 1.36 0 0 Z " fill="#FCFDF3" transform="translate(382,33)"/>
<path d="M0 0 C5.01113235 1.4317521 6.94469549 3.98445693 10 8 C3.9453125 8.1953125 3.9453125 8.1953125 2 8 C0 6 0 6 -0.125 2.875 C-0.08375 1.92625 -0.0425 0.9775 0 0 Z " fill="#FBFBED" transform="translate(79,436)"/>
<path d="M0 0 C1.32 0 2.64 0 4 0 C4 3.96 4 7.92 4 12 C2.68 11.67 1.36 11.34 0 11 C0 7.37 0 3.74 0 0 Z " fill="#FEFEFB" transform="translate(0,268)"/>
<path d="M0 0 C0 3 0 3 -1.65234375 4.99291992 C-2.78349609 6.10050659 -2.78349609 6.10050659 -3.9375 7.23046875 C-4.74960938 8.03291016 -5.56171875 8.83535156 -6.3984375 9.66210938 C-7.25695312 10.49548828 -8.11546875 11.32886719 -9 12.1875 C-10.28777344 13.4549707 -10.28777344 13.4549707 -11.6015625 14.74804688 C-13.7278365 16.83888298 -15.86078464 18.92241983 -18 21 C-18.66 20.67 -19.32 20.34 -20 20 C-15.5446472 14.77443994 -11.00968215 9.94667977 -5.765625 5.5078125 C-3.73452487 3.77328894 -1.84929177 1.92634559 0 0 Z " fill="#C8D13D" transform="translate(90,65)"/>
<path d="M0 0 C4.29 0 8.58 0 13 0 C13 0.99 13 1.98 13 3 C6.565 3.495 6.565 3.495 0 4 C0 2.68 0 1.36 0 0 Z " fill="#FEFEFE" transform="translate(281,507)"/>
<path d="M0 0 C2.475 0.495 2.475 0.495 5 1 C5 4.63 5 8.26 5 12 C4.01 12.33 3.02 12.66 2 13 C1.34 8.71 0.68 4.42 0 0 Z " fill="#ECEDDC" transform="translate(503,205)"/>
<path d="M0 0 C0.66 0.33 1.32 0.66 2 1 C1.54109375 1.51949219 1.0821875 2.03898438 0.609375 2.57421875 C-6.25004175 9.44132136 -6.25004175 9.44132136 -10 18 C-10.66 18 -11.32 18 -12 18 C-11.54207964 11.74175503 -8.83262861 7.64644645 -4.3359375 3.4453125 C-2.92162928 2.25890229 -1.464475 1.12389942 0 0 Z " fill="#208F7A" transform="translate(297,159)"/>
<path d="M0 0 C0.125 3.375 0.125 3.375 0 7 C-2 9 -2 9 -3.9453125 9.1953125 C-5.96354167 9.13020833 -7.98177083 9.06510417 -10 9 C-8.33333333 7.33333333 -6.66666667 5.66666667 -5 4 C-4.2575 3.236875 -3.515 2.47375 -2.75 1.6875 C-1 0 -1 0 0 0 Z " fill="#EEEEEE" transform="translate(433,435)"/>
<path d="M0 0 C-6.15034169 7.48291572 -6.15034169 7.48291572 -10 10 C-10.32152515 6.46322336 -10.4131192 4.6037896 -8.375 1.625 C-5.3962104 -0.4131192 -3.53677664 -0.32152515 0 0 Z " fill="#EBEDD8" transform="translate(89,66)"/>
<path d="M0 0 C0.99 0 1.98 0 3 0 C3 6.93 3 13.86 3 21 C2.67 21 2.34 21 2 21 C0.79556805 13.94546999 -0.28100502 7.16562789 0 0 Z " fill="#F1F1F1" transform="translate(1,280)"/>
<path d="M0 0 C3.79354018 1.49031936 5.6478536 3.72379609 8 7 C8 7.33 8 7.66 8 8 C5.66705225 8.04241723 3.33297433 8.04092937 1 8 C0 7 0 7 -0.0625 3.4375 C-0.041875 2.303125 -0.02125 1.16875 0 0 Z " fill="#FAFBE9" transform="translate(67,423)"/>
<path d="M0 0 C2.475 0.495 2.475 0.495 5 1 C5 4.63 5 8.26 5 12 C4.34 12 3.68 12 3 12 C2.49440092 10.56445975 1.9957251 9.1264798 1.5 7.6875 C1.2215625 6.88699219 0.943125 6.08648437 0.65625 5.26171875 C0 3 0 3 0 0 Z " fill="#FEFEFC" transform="translate(11,331)"/>
<path d="M0 0 C0.33 0 0.66 0 1 0 C1 2.64 1 5.28 1 8 C-5.75 10.125 -5.75 10.125 -8 9 C-6.69088122 7.49704815 -5.37761608 5.99770689 -4.0625 4.5 C-3.33160156 3.6646875 -2.60070312 2.829375 -1.84765625 1.96875 C-1.23792969 1.3190625 -0.62820313 0.669375 0 0 Z " fill="#EBECDF" transform="translate(444,422)"/>
<path d="M0 0 C0.99 0 1.98 0 3 0 C3 4.29 3 8.58 3 13 C2.01 13 1.02 13 0 13 C0 8.71 0 4.42 0 0 Z " fill="#FDFDFD" transform="translate(509,255)"/>
<path d="M0 0 C3.27034459 -0.36337162 4.60883753 -0.28544288 7.3125 1.6875 C9.31408296 4.43040998 9.1478448 5.69813279 9 9 C7.68103535 8.07161713 6.37001311 7.13194268 5.0625 6.1875 C4.33160156 5.66542969 3.60070312 5.14335938 2.84765625 4.60546875 C1 3 1 3 0 0 Z " fill="#FBFCED" transform="translate(424,66)"/>
<path d="M0 0 C4.29 0 8.58 0 13 0 C13 0.99 13 1.98 13 3 C8.71 3 4.42 3 0 3 C0 2.01 0 1.02 0 0 Z " fill="#FEFEFA" transform="translate(243,0)"/>
<path d="M0 0 C0.99 0 1.98 0 3 0 C2.67 3.96 2.34 7.92 2 12 C1.01 12 0.02 12 -1 12 C-1.02712066 10.56260487 -1.04645067 9.12506137 -1.0625 7.6875 C-1.07410156 6.88699219 -1.08570312 6.08648437 -1.09765625 5.26171875 C-1 3 -1 3 0 0 Z " fill="#EDEDEC" transform="translate(1,230)"/>
<path d="M0 0 C1.79236067 0.47656412 3.58386897 0.95633498 5.375 1.4375 C6.37273437 1.70433594 7.37046875 1.97117187 8.3984375 2.24609375 C11 3 11 3 13 4 C12.67 4.66 12.34 5.32 12 6 C10.3745692 5.85904936 8.74965949 5.71207913 7.125 5.5625 C6.22007812 5.48128906 5.31515625 5.40007813 4.3828125 5.31640625 C2 5 2 5 0 4 C0 2.68 0 1.36 0 0 Z " fill="#FDFDF8" transform="translate(332,11)"/>
<path d="M0 0 C0.99 0 1.98 0 3 0 C3 3.96 3 7.92 3 12 C2.01 12 1.02 12 0 12 C0 8.04 0 4.08 0 0 Z " fill="#ECECEC" transform="translate(509,243)"/>
<path d="M0 0 C1.65 1.32 3.3 2.64 5 4 C4.01 4 3.02 4 2 4 C1.67 5.32 1.34 6.64 1 8 C-0.16945792 7.19152271 -1.33550461 6.37810888 -2.5 5.5625 C-3.1496875 5.11003906 -3.799375 4.65757812 -4.46875 4.19140625 C-4.9740625 3.79824219 -5.479375 3.40507812 -6 3 C-6 2.67 -6 2.34 -6 2 C-4.02 2 -2.04 2 0 2 C0 1.34 0 0.68 0 0 Z " fill="#EFEFE5" transform="translate(103,455)"/>
<path d="M0 0 C0.36075949 4.44936709 0.36075949 4.44936709 -1.1875 6.8125 C-3.55982525 8.36678206 -5.22041345 8.22537188 -8 8 C-3.67567568 0 -3.67567568 0 0 0 Z " fill="#FDFEFA" transform="translate(79,71)"/>
<path d="M0 0 C2.46301423 2.46301423 2.76766521 4.27360036 3.625 7.625 C3.88539063 8.62789062 4.14578125 9.63078125 4.4140625 10.6640625 C4.60742188 11.43492187 4.80078125 12.20578125 5 13 C2.525 12.01 2.525 12.01 0 11 C0 7.37 0 3.74 0 0 Z " fill="#FDFDFB" transform="translate(496,167)"/>
<path d="M0 0 C1.62490954 -0.02698189 3.24994633 -0.04638757 4.875 -0.0625 C5.77992188 -0.07410156 6.68484375 -0.08570313 7.6171875 -0.09765625 C10 -0 10 -0 12 1 C12 1.66 12 2.32 12 3 C8.04 3 4.08 3 0 3 C0 2.01 0 1.02 0 0 Z " fill="#FEFEFC" transform="translate(269,0)"/>
<path d="M0 0 C2.0625 1.5 2.0625 1.5 4 4 C4.05928384 6.82406647 3.55954815 9.20225927 3 12 C0.33264727 9.51047079 -1.55746343 7.36591866 -3 4 C-1.68 4 -0.36 4 1 4 C0.67 2.68 0.34 1.36 0 0 Z " fill="#EEEFE4" transform="translate(51,402)"/>
<path d="M0 0 C3.24299151 2.38957269 5.50902342 4.2047869 7 8 C5.02 8.99 5.02 8.99 3 10 C0.64551835 7.44931155 0.01672076 6.28982642 -0.1875 2.75 C-0.125625 1.8425 -0.06375 0.935 0 0 Z " fill="#EDEEE4" transform="translate(445,83)"/>
<path d="M0 0 C2.64 1.98 5.28 3.96 8 6 C6.02 6.99 6.02 6.99 4 8 C1.25 6.625 1.25 6.625 -1 5 C-0.67 3.35 -0.34 1.7 0 0 Z " fill="#EBECDF" transform="translate(420,59)"/>
<path d="M0 0 C4.29 0 8.58 0 13 0 C13.33 0.66 13.66 1.32 14 2 C9.38 2.33 4.76 2.66 0 3 C0 2.01 0 1.02 0 0 Z " fill="#ECEDD7" transform="translate(218,3)"/>
<path d="M0 0 C0.33 0 0.66 0 1 0 C1.125 2.875 1.125 2.875 1 6 C-1 8 -1 8 -3.625 8.125 C-4.40875 8.08375 -5.1925 8.0425 -6 8 C-2.25 2.25 -2.25 2.25 0 0 Z " fill="#FDFEF9" transform="translate(66,83)"/>
<path d="M0 0 C0.33 0.99 0.66 1.98 1 3 C0.01 3.33 -0.98 3.66 -2 4 C-2 7.96 -2 11.92 -2 16 C-2.99 15.01 -3.98 14.02 -5 13 C-4.90707644 7.23873938 -4.11590114 4.24867215 0 0 Z " fill="#269073" transform="translate(323,138)"/>
<path d="M0 0 C0.33 0 0.66 0 1 0 C1.125 2.375 1.125 2.375 1 5 C-1 7 -1 7 -4.125 7.125 C-5.548125 7.063125 -5.548125 7.063125 -7 7 C-4.66666667 4.66666667 -2.33333333 2.33333333 0 0 Z " fill="#FEFEFA" transform="translate(91,59)"/>
<path d="M0 0 C2.64 0 5.28 0 8 0 C3.375 4.875 3.375 4.875 0 6 C0 4.02 0 2.04 0 0 Z " fill="#FDFDFC" transform="translate(407,457)"/>
<path d="M0 0 C0.99 0.33 1.98 0.66 3 1 C2.34 1.495 1.68 1.99 1 2.5 C-1.8827217 6.10340212 -1.30200997 8.46985042 -1 13 C-2.5625 11.9375 -2.5625 11.9375 -4 10 C-3.87059529 6.3766682 -3.75012072 3.93014969 -1.4375 1.0625 C-0.7259375 0.5365625 -0.7259375 0.5365625 0 0 Z " fill="#128882" transform="translate(332,186)"/>
<path d="M0 0 C1.98 0 3.96 0 6 0 C5.19185349 1.33597652 4.37836819 2.668725 3.5625 4 C3.11003906 4.7425 2.65757812 5.485 2.19140625 6.25 C1.79824219 6.8275 1.40507812 7.405 1 8 C0.67 8 0.34 8 0 8 C0 5.36 0 2.72 0 0 Z " fill="#FEFEFD" transform="translate(458,406)"/>
<path d="M0 0 C-1.875 3.875 -1.875 3.875 -3 5 C-3.36760731 7.32817964 -3.70241581 9.6618385 -4 12 C-4.66 11.34 -5.32 10.68 -6 10 C-5.66723549 3.89931741 -5.66723549 3.89931741 -3.5625 1.0625 C-2 0 -2 0 0 0 Z " fill="#1D8A7C" transform="translate(378,176)"/>
<path d="M0 0 C2.95183101 2.95183101 3.08663988 5.95511947 4 10 C2.68 10 1.36 10 0 10 C0 6.7 0 3.4 0 0 Z " fill="#EBEDCE" transform="translate(16,333)"/>
<path d="M0 0 C0.33 1.32 0.66 2.64 1 4 C1.99 4 2.98 4 4 4 C3.34 5.98 2.68 7.96 2 10 C1.34 8.68 0.68 7.36 0 6 C-0.66 6 -1.32 6 -2 6 C-1.34 4.02 -0.68 2.04 0 0 Z " fill="#ECECDB" transform="translate(482,365)"/>
<path d="M0 0 C2.64 0 5.28 0 8 0 C8 1.32 8 2.64 8 4 C2.25 2.25 2.25 2.25 0 0 Z " fill="#FCFCFC" transform="translate(135,482)"/>
<path d="M0 0 C0 3 0 3 -1.3125 4.60546875 C-1.869375 5.12753906 -2.42625 5.64960938 -3 6.1875 C-3.556875 6.71730469 -4.11375 7.24710937 -4.6875 7.79296875 C-5.120625 8.19128906 -5.55375 8.58960938 -6 9 C-6.99 8.67 -7.98 8.34 -9 8 C-6.03 5.36 -3.06 2.72 0 0 Z " fill="#E9EACE" transform="translate(432,435)"/>
<path d="M0 0 C0.99 0 1.98 0 3 0 C2.25 6.75 2.25 6.75 0 9 C0 6.03 0 3.06 0 0 Z " fill="#FAFAE6" transform="translate(16,167)"/>
<path d="M0 0 C0 1.65 0 3.3 0 5 C-2.31 5 -4.62 5 -7 5 C-2.16129032 0 -2.16129032 0 0 0 Z " fill="#FAFAF7" transform="translate(105,49)"/>
<path d="M0 0 C1.65 0.99 3.3 1.98 5 3 C3.68 3.99 2.36 4.98 1 6 C0.34 5.01 -0.32 4.02 -1 3 C-0.67 2.01 -0.34 1.02 0 0 Z " fill="#EFF0E3" transform="translate(407,49)"/>
<path d="M0 0 C1.37562854 1.28965176 2.70766393 2.62689293 4 4 C4 4.66 4 5.32 4 6 C2.68 6.33 1.36 6.66 0 7 C-1.33332095 4.3333581 -0.67102033 2.83319697 0 0 Z " fill="#EDEDE4" transform="translate(458,98)"/>
</svg>
